<?xml version="1.0" standalone="no"?>
<!DOCTYPE svg PUBLIC "-//W3C//DTD SVG 20010904//EN"
 "http://www.w3.org/TR/2001/REC-SVG-20010904/DTD/svg10.dtd">
<svg version="1.0" xmlns="http://www.w3.org/2000/svg"
 width="512.000000pt" height="512.000000pt" viewBox="0 0 512.000000 512.000000"
 preserveAspectRatio="xMidYMid meet">
<metadata>
Created by potrace 1.16, written by Peter Selinger 2001-2019
</metadata>
<g transform="translate(0.000000,512.000000) scale(0.100000,-0.100000)"
fill="#000000" stroke="none">
<path d="M2229 3651 l-29 -29 0 -912 0 -912 29 -29 29 -29 297 0 c314 0 340 3
365 49 7 13 10 324 10 926 l0 907 -29 29 -29 29 -307 0 -307 0 -29 -29z"/>
<path d="M1276 3129 l-26 -20 0 -658 0 -658 23 -21 c23 -22 29 -22 336 -22
l312 0 24 25 25 24 0 645 c0 354 -3 652 -6 661 -16 41 -49 45 -362 45 -288 0
-300 -1 -326 -21z m665 -36 c6 -16 8 -267 7 -665 -3 -620 -4 -640 -22 -654
-16 -11 -76 -14 -313 -14 l-294 0 -24 25 -25 24 0 639 c0 535 2 641 14 658 14
18 32 19 313 24 164 3 306 1 316 -3 10 -5 22 -20 28 -34z"/>
<path d="M3200 2893 c-14 -9 -28 -22 -32 -27 -4 -6 -8 -250 -8 -543 l0 -531
31 -26 31 -26 302 0 302 0 30 31 29 30 3 512 c2 372 -1 519 -9 540 -24 57 -27
57 -354 57 -266 0 -303 -2 -325 -17z"/>
</g>
</svg>
